<svg width="604" height="409" viewBox="0 0 604 409" fill="none" xmlns="http://www.w3.org/2000/svg">
<rect width="604" height="409" fill="white"/>
<path d="M243.539 132.197H358.412L336.669 314.772H265.282L243.539 132.197Z" fill="#B9BCFF"/>
<path d="M243.539 381H358.412L336.669 321.037H265.282L243.539 381Z" fill="#B9BCFF"/>
<path d="M241.304 181.868L233.929 123.695H368.022L360.423 181.868C375.799 186.343 394.84 179.929 401.769 173.366C374.056 178.915 370.927 159.718 375.397 148.754C379.867 137.791 389.7 128.394 419.871 134.658C407.803 118.549 401.769 120.563 386.795 118.549C372.67 114.432 380.984 95.2795 410.485 95.2795C393.276 85.8823 378.749 86.3298 361.764 90.1335C346.209 74.5609 382.102 67.7591 423 73.5765C382.996 50.3071 346.344 57.6907 327.794 73.5765C352.154 43.5948 359.082 46.5035 399.087 29.0515C340.533 21.8917 240.932 52.0971 236.834 95.2795C207.557 90.1335 192.36 78.7225 187.89 60.3756C182.527 95.2796 183.719 116.162 204.429 123.695C184.046 134.972 180.068 134.658 168 127.499C178.057 151.887 188.784 157.629 215.156 159.718C216.944 177.617 206.663 186.119 196.83 190.594C213.279 192.026 230.353 187.014 241.304 181.868Z" fill="#B9BCFF"/>
<path d="M293.102 246.172C293.195 240.594 293.828 236.188 295 232.953C296.172 229.719 298.562 226.133 302.172 222.195L311.383 212.703C315.32 208.25 317.289 203.469 317.289 198.359C317.289 193.438 316 189.594 313.422 186.828C310.844 184.016 307.094 182.609 302.172 182.609C297.391 182.609 293.547 183.875 290.641 186.406C287.734 188.938 286.281 192.336 286.281 196.602H273.273C273.367 189.008 276.062 182.891 281.359 178.25C286.703 173.562 293.641 171.219 302.172 171.219C311.031 171.219 317.922 173.609 322.844 178.391C327.812 183.125 330.297 189.641 330.297 197.938C330.297 206.141 326.5 214.227 318.906 222.195L311.242 229.789C307.82 233.586 306.109 239.047 306.109 246.172H293.102ZM292.539 268.461C292.539 266.352 293.172 264.594 294.438 263.188C295.75 261.734 297.672 261.008 300.203 261.008C302.734 261.008 304.656 261.734 305.969 263.188C307.281 264.594 307.938 266.352 307.938 268.461C307.938 270.57 307.281 272.328 305.969 273.734C304.656 275.094 302.734 275.773 300.203 275.773C297.672 275.773 295.75 275.094 294.438 273.734C293.172 272.328 292.539 270.57 292.539 268.461Z" fill="white"/>
</svg>
